<!DOCTYPE svg PUBLIC "-//W3C//DTD SVG 1.1//EN" "http://www.w3.org/Graphics/SVG/1.1/DTD/svg11.dtd">
<!-- Uploaded to: SVG Repo, www.svgrepo.com, Transformed by: SVG Repo Mixer Tools -->
<svg version="1.1" id="Icons" xmlns="http://www.w3.org/2000/svg" xmlns:xlink="http://www.w3.org/1999/xlink" viewBox="0 0 32.00 32.00" xml:space="preserve" width="64px" height="64px" fill="#000000" stroke="#000000">
<g id="SVGRepo_bgCarrier" stroke-width="0"/>
<g id="SVGRepo_tracerCarrier" stroke-linecap="round" stroke-linejoin="round" stroke="#CCCCCC" stroke-width="3.3920000000000003"/>
<g id="SVGRepo_iconCarrier"> <style type="text/css"> .st0{fill:none;stroke:#0068FF;stroke-width:0.736;stroke-linecap:round;stroke-linejoin:round;stroke-miterlimit:10;} .st1{fill:none;stroke:#0068FF;stroke-width:0.736;stroke-linejoin:round;stroke-miterlimit:10;} .st2{fill:none;stroke:#0068FF;stroke-width:0.736;stroke-linecap:round;stroke-miterlimit:10;} </style> <path class="st0" d="M22,15H7c-2.2,0-4-1.8-4-4v0c0-2.2,1.8-4,4-4h15V15z"/> <line class="st0" x1="8" y1="10" x2="7" y2="12"/> <line class="st0" x1="12" y1="10" x2="11" y2="12"/> <path class="st0" d="M24.3,14H22V8h2.3c1,0,1.7,0.8,1.7,1.7v2.5C26,13.2,25.2,14,24.3,14z"/> <line class="st0" x1="26" y1="11" x2="30" y2="11"/> <line class="st0" x1="23" y1="11" x2="22" y2="11"/> <polygon class="st0" points="10,24 4,24 7,15 13,15 "/> <path class="st0" d="M12,27H3v-1.2c0-1,0.8-1.8,1.8-1.8h4.1c1.3,0,2.4,0.8,2.8,2L12,27z"/> <path class="st0" d="M18,15l-0.4,1.7C17.2,18.1,16,19,14.6,19H12"/> </g>
</svg>